<svg width="14" height="14" viewBox="0 0 14 14" fill="none" xmlns="http://www.w3.org/2000/svg">
<path d="M11.2115 1.46124C11.3747 1.46124 11.5313 1.52607 11.6467 1.64148C11.7621 1.75689 11.8269 1.91341 11.8269 2.07662V8.23047C11.8269 8.39368 11.7621 8.5502 11.6467 8.66561C11.5313 8.78102 11.3747 8.84585 11.2115 8.84585H3.93154L3.57462 9.20893L1.98077 10.7966V2.07662C1.98077 1.91341 2.0456 1.75689 2.16101 1.64148C2.27642 1.52607 2.43294 1.46124 2.59615 1.46124H11.2115ZM11.2115 0.230469H2.59615C2.10652 0.230469 1.63695 0.424974 1.29073 0.771195C0.944505 1.11742 0.75 1.58699 0.75 2.07662V13.7689L4.44231 10.0766H11.2115C11.7012 10.0766 12.1707 9.88212 12.517 9.5359C12.8632 9.18968 13.0577 8.7201 13.0577 8.23047V2.07662C13.0577 1.58699 12.8632 1.11742 12.517 0.771195C12.1707 0.424974 11.7012 0.230469 11.2115 0.230469Z" fill="#5C5C5C"/>
</svg>
