<svg width="96" height="26" viewBox="0 0 96 26" fill="none" xmlns="http://www.w3.org/2000/svg">
<rect width="95.3" height="26" rx="8" fill="#E6F4EA"/>
<path fill-rule="evenodd" clip-rule="evenodd" d="M22.274 12.7226L16.274 6.7226C16.034 6.4826 15.7007 6.33594 15.334 6.33594H10.6673C9.93398 6.33594 9.33398 6.93594 9.33398 7.66927V12.3359C9.33398 12.7026 9.48065 13.0359 9.72732 13.2826L15.7273 19.2826C15.9673 19.5226 16.3007 19.6693 16.6673 19.6693C17.034 19.6693 17.3673 19.5226 17.6073 19.2759L22.274 14.6093C22.5207 14.3693 22.6673 14.0359 22.6673 13.6693C22.6673 13.3026 22.514 12.9626 22.274 12.7226ZM16.6673 18.3426L10.6673 12.3359V7.66927H15.334V7.6626L21.334 13.6626L16.6673 18.3426ZM13.334 9.33594C13.334 9.60115 13.2286 9.85551 13.0411 10.043C12.8536 10.2306 12.5992 10.3359 12.334 10.3359C12.0688 10.3359 11.8144 10.2306 11.6269 10.043C11.4393 9.85551 11.334 9.60115 11.334 9.33594C11.334 9.07072 11.4393 8.81637 11.6269 8.62883C11.8144 8.44129 12.0688 8.33594 12.334 8.33594C12.5992 8.33594 12.8536 8.44129 13.0411 8.62883C13.2286 8.81637 13.334 9.07072 13.334 9.33594Z" fill="#0A3818"/>
<path d="M31.5684 12.6758V13.8008H28.4688V12.6758H31.5684ZM41.6297 15.7578V16.8828H35.9109V15.916L38.6883 12.8867C38.993 12.543 39.2332 12.2461 39.409 11.9961C39.5848 11.7461 39.7078 11.5215 39.7781 11.3223C39.8523 11.1191 39.8895 10.9219 39.8895 10.7305C39.8895 10.4609 39.8387 10.2246 39.7371 10.0215C39.6395 9.81445 39.4949 9.65234 39.3035 9.53516C39.1121 9.41406 38.8797 9.35352 38.6062 9.35352C38.2898 9.35352 38.0242 9.42188 37.8094 9.55859C37.5945 9.69531 37.4324 9.88477 37.323 10.127C37.2137 10.3652 37.159 10.6387 37.159 10.9473H35.7469C35.7469 10.4512 35.8602 9.99805 36.0867 9.58789C36.3133 9.17383 36.6414 8.8457 37.0711 8.60352C37.5008 8.35742 38.0184 8.23438 38.6238 8.23438C39.1941 8.23438 39.6785 8.33008 40.077 8.52148C40.4754 8.71289 40.7781 8.98438 40.9852 9.33594C41.1961 9.6875 41.3016 10.1035 41.3016 10.584C41.3016 10.8496 41.2586 11.1133 41.1727 11.375C41.0867 11.6367 40.9637 11.8984 40.8035 12.1602C40.6473 12.418 40.4617 12.6777 40.2469 12.9395C40.032 13.1973 39.7957 13.459 39.5379 13.7246L37.6922 15.7578H41.6297ZM48.3918 11.9023V13.2969C48.3918 13.9648 48.3254 14.5352 48.1926 15.0078C48.0637 15.4766 47.8762 15.8574 47.6301 16.1504C47.384 16.4434 47.0891 16.6582 46.7453 16.7949C46.4055 16.9316 46.0246 17 45.6027 17C45.2668 17 44.9543 16.957 44.6652 16.8711C44.3801 16.7852 44.1223 16.6504 43.8918 16.4668C43.6613 16.2832 43.4641 16.0469 43.3 15.7578C43.1398 15.4648 43.0148 15.1152 42.925 14.709C42.8391 14.3027 42.7961 13.832 42.7961 13.2969V11.9023C42.7961 11.2305 42.8625 10.6641 42.9953 10.2031C43.1281 9.73828 43.3176 9.36133 43.5637 9.07227C43.8098 8.7793 44.1027 8.56641 44.4426 8.43359C44.7863 8.30078 45.1691 8.23438 45.591 8.23438C45.9309 8.23438 46.2434 8.27734 46.5285 8.36328C46.8176 8.44531 47.0754 8.57617 47.302 8.75586C47.5324 8.93555 47.7277 9.16992 47.8879 9.45898C48.052 9.74414 48.177 10.0898 48.2629 10.4961C48.3488 10.8984 48.3918 11.3672 48.3918 11.9023ZM46.9797 13.4961V11.6914C46.9797 11.3516 46.9602 11.0527 46.9211 10.7949C46.882 10.5332 46.8234 10.3125 46.7453 10.1328C46.6711 9.94922 46.5773 9.80078 46.4641 9.6875C46.3508 9.57031 46.2219 9.48633 46.0773 9.43555C45.9328 9.38086 45.7707 9.35352 45.591 9.35352C45.3723 9.35352 45.177 9.39648 45.0051 9.48242C44.8332 9.56445 44.6887 9.69727 44.5715 9.88086C44.4543 10.0645 44.3645 10.3066 44.302 10.6074C44.2434 10.9043 44.2141 11.2656 44.2141 11.6914V13.4961C44.2141 13.8398 44.2336 14.1426 44.2727 14.4043C44.3117 14.666 44.3703 14.8906 44.4484 15.0781C44.5266 15.2617 44.6203 15.4141 44.7297 15.5352C44.843 15.6523 44.9719 15.7383 45.1164 15.793C45.2648 15.8477 45.427 15.875 45.6027 15.875C45.8254 15.875 46.0227 15.832 46.1945 15.7461C46.3664 15.6602 46.5109 15.5234 46.6281 15.3359C46.7453 15.1445 46.8332 14.8965 46.8918 14.5918C46.9504 14.2871 46.9797 13.9219 46.9797 13.4961ZM55.3121 11.9023V13.2969C55.3121 13.9648 55.2457 14.5352 55.1129 15.0078C54.984 15.4766 54.7965 15.8574 54.5504 16.1504C54.3043 16.4434 54.0094 16.6582 53.6656 16.7949C53.3258 16.9316 52.9449 17 52.523 17C52.1871 17 51.8746 16.957 51.5855 16.8711C51.3004 16.7852 51.0426 16.6504 50.8121 16.4668C50.5816 16.2832 50.3844 16.0469 50.2203 15.7578C50.0602 15.4648 49.9352 15.1152 49.8453 14.709C49.7594 14.3027 49.7164 13.832 49.7164 13.2969V11.9023C49.7164 11.2305 49.7828 10.6641 49.9156 10.2031C50.0484 9.73828 50.2379 9.36133 50.484 9.07227C50.7301 8.7793 51.023 8.56641 51.3629 8.43359C51.7066 8.30078 52.0895 8.23438 52.5113 8.23438C52.8512 8.23438 53.1637 8.27734 53.4488 8.36328C53.7379 8.44531 53.9957 8.57617 54.2223 8.75586C54.4527 8.93555 54.648 9.16992 54.8082 9.45898C54.9723 9.74414 55.0973 10.0898 55.1832 10.4961C55.2691 10.8984 55.3121 11.3672 55.3121 11.9023ZM53.9 13.4961V11.6914C53.9 11.3516 53.8805 11.0527 53.8414 10.7949C53.8023 10.5332 53.7437 10.3125 53.6656 10.1328C53.5914 9.94922 53.4977 9.80078 53.3844 9.6875C53.2711 9.57031 53.1422 9.48633 52.9977 9.43555C52.8531 9.38086 52.691 9.35352 52.5113 9.35352C52.2926 9.35352 52.0973 9.39648 51.9254 9.48242C51.7535 9.56445 51.609 9.69727 51.4918 9.88086C51.3746 10.0645 51.2848 10.3066 51.2223 10.6074C51.1637 10.9043 51.1344 11.2656 51.1344 11.6914V13.4961C51.1344 13.8398 51.1539 14.1426 51.193 14.4043C51.232 14.666 51.2906 14.8906 51.3687 15.0781C51.4469 15.2617 51.5406 15.4141 51.65 15.5352C51.7633 15.6523 51.8922 15.7383 52.0367 15.793C52.1852 15.8477 52.3473 15.875 52.523 15.875C52.7457 15.875 52.943 15.832 53.1148 15.7461C53.2867 15.6602 53.4312 15.5234 53.5484 15.3359C53.6656 15.1445 53.7535 14.8965 53.8121 14.5918C53.8707 14.2871 53.9 13.9219 53.9 13.4961ZM62.2324 11.9023V13.2969C62.2324 13.9648 62.166 14.5352 62.0332 15.0078C61.9043 15.4766 61.7168 15.8574 61.4707 16.1504C61.2246 16.4434 60.9297 16.6582 60.5859 16.7949C60.2461 16.9316 59.8652 17 59.4434 17C59.1074 17 58.7949 16.957 58.5059 16.8711C58.2207 16.7852 57.9629 16.6504 57.7324 16.4668C57.502 16.2832 57.3047 16.0469 57.1406 15.7578C56.9805 15.4648 56.8555 15.1152 56.7656 14.709C56.6797 14.3027 56.6367 13.832 56.6367 13.2969V11.9023C56.6367 11.2305 56.7031 10.6641 56.8359 10.2031C56.9688 9.73828 57.1582 9.36133 57.4043 9.07227C57.6504 8.7793 57.9434 8.56641 58.2832 8.43359C58.627 8.30078 59.0098 8.23438 59.4316 8.23438C59.7715 8.23438 60.084 8.27734 60.3691 8.36328C60.6582 8.44531 60.916 8.57617 61.1426 8.75586C61.373 8.93555 61.5684 9.16992 61.7285 9.45898C61.8926 9.74414 62.0176 10.0898 62.1035 10.4961C62.1895 10.8984 62.2324 11.3672 62.2324 11.9023ZM60.8203 13.4961V11.6914C60.8203 11.3516 60.8008 11.0527 60.7617 10.7949C60.7227 10.5332 60.6641 10.3125 60.5859 10.1328C60.5117 9.94922 60.418 9.80078 60.3047 9.6875C60.1914 9.57031 60.0625 9.48633 59.918 9.43555C59.7734 9.38086 59.6113 9.35352 59.4316 9.35352C59.2129 9.35352 59.0176 9.39648 58.8457 9.48242C58.6738 9.56445 58.5293 9.69727 58.4121 9.88086C58.2949 10.0645 58.2051 10.3066 58.1426 10.6074C58.084 10.9043 58.0547 11.2656 58.0547 11.6914V13.4961C58.0547 13.8398 58.0742 14.1426 58.1133 14.4043C58.1523 14.666 58.2109 14.8906 58.2891 15.0781C58.3672 15.2617 58.4609 15.4141 58.5703 15.5352C58.6836 15.6523 58.8125 15.7383 58.957 15.793C59.1055 15.8477 59.2676 15.875 59.4434 15.875C59.666 15.875 59.8633 15.832 60.0352 15.7461C60.207 15.6602 60.3516 15.5234 60.4688 15.3359C60.5859 15.1445 60.6738 14.8965 60.7324 14.5918C60.791 14.2871 60.8203 13.9219 60.8203 13.4961ZM68.1805 11.7617V19.3203H66.7684V10.543H68.0691L68.1805 11.7617ZM72.3113 13.6543V13.7773C72.3113 14.2383 72.2566 14.666 72.1473 15.0605C72.0418 15.4512 71.8836 15.793 71.6727 16.0859C71.4656 16.375 71.2098 16.5996 70.9051 16.7598C70.6004 16.9199 70.2488 17 69.8504 17C69.4559 17 69.1102 16.9277 68.8133 16.7832C68.5203 16.6348 68.2723 16.4258 68.0691 16.1562C67.866 15.8867 67.702 15.5703 67.577 15.207C67.4559 14.8398 67.3699 14.4375 67.3191 14V13.5254C67.3699 13.0605 67.4559 12.6387 67.577 12.2598C67.702 11.8809 67.866 11.5547 68.0691 11.2812C68.2723 11.0078 68.5203 10.7969 68.8133 10.6484C69.1063 10.5 69.448 10.4258 69.8387 10.4258C70.2371 10.4258 70.5906 10.5039 70.8992 10.6602C71.2078 10.8125 71.4676 11.0312 71.6785 11.3164C71.8895 11.5977 72.0477 11.9375 72.1531 12.3359C72.2586 12.7305 72.3113 13.1699 72.3113 13.6543ZM70.8992 13.7773V13.6543C70.8992 13.3613 70.8719 13.0898 70.8172 12.8398C70.7625 12.5859 70.6766 12.3633 70.5594 12.1719C70.4422 11.9805 70.2918 11.832 70.1082 11.7266C69.9285 11.6172 69.7117 11.5625 69.4578 11.5625C69.2078 11.5625 68.993 11.6055 68.8133 11.6914C68.6336 11.7734 68.4832 11.8887 68.3621 12.0371C68.241 12.1855 68.1473 12.3594 68.0809 12.5586C68.0145 12.7539 67.9676 12.9668 67.9402 13.1973V14.334C67.9871 14.6152 68.0672 14.873 68.1805 15.1074C68.2938 15.3418 68.4539 15.5293 68.6609 15.6699C68.8719 15.8066 69.1414 15.875 69.4695 15.875C69.7234 15.875 69.9402 15.8203 70.1199 15.7109C70.2996 15.6016 70.4461 15.4512 70.5594 15.2598C70.6766 15.0645 70.7625 14.8398 70.8172 14.5859C70.8719 14.332 70.8992 14.0625 70.8992 13.7773ZM75.382 16.1914L77.1047 10.543H78.6164L76.0734 17.8496C76.0148 18.0059 75.9387 18.1758 75.8449 18.3594C75.7512 18.543 75.6281 18.7168 75.4758 18.8809C75.3273 19.0488 75.1418 19.1836 74.9191 19.2852C74.6965 19.3906 74.427 19.4434 74.1105 19.4434C73.9855 19.4434 73.8645 19.4316 73.7473 19.4082C73.634 19.3887 73.5266 19.3672 73.425 19.3438L73.4191 18.2656C73.4582 18.2695 73.5051 18.2734 73.5598 18.2773C73.6184 18.2812 73.6652 18.2832 73.7004 18.2832C73.9348 18.2832 74.1301 18.2539 74.2863 18.1953C74.4426 18.1406 74.5695 18.0508 74.6672 17.9258C74.7687 17.8008 74.8547 17.6328 74.925 17.4219L75.382 16.1914ZM74.4094 10.543L75.9152 15.2891L76.1672 16.7773L75.1887 17.0293L72.8859 10.543H74.4094ZM83.5035 7.76562H84.6461C84.6461 8.11328 84.5973 8.40039 84.4996 8.62695C84.4059 8.84961 84.2652 9.0332 84.0777 9.17773C83.8941 9.31836 83.6656 9.43164 83.3922 9.51758C83.1227 9.60352 82.8102 9.68164 82.4547 9.75195C82.1266 9.82227 81.8297 9.93359 81.5641 10.0859C81.3023 10.2344 81.0816 10.4434 80.902 10.7129C80.7262 10.9785 80.5992 11.3203 80.5211 11.7383C80.443 12.1562 80.4195 12.666 80.4508 13.2676V13.666L79.3316 13.7656V13.3672C79.3316 12.6211 79.4 11.9707 79.5367 11.416C79.6734 10.8613 79.8668 10.3945 80.1168 10.0156C80.3707 9.63281 80.6715 9.32812 81.0191 9.10156C81.3707 8.875 81.7613 8.71875 82.191 8.63281C82.484 8.57031 82.7281 8.50781 82.9234 8.44531C83.1188 8.37891 83.2633 8.29492 83.357 8.19336C83.4547 8.08789 83.5035 7.94531 83.5035 7.76562ZM82.5133 10.9004C82.9352 10.9004 83.3102 10.9746 83.6383 11.123C83.9664 11.2676 84.2438 11.4707 84.4703 11.7324C84.6969 11.9941 84.8688 12.3027 84.9859 12.6582C85.107 13.0137 85.1676 13.4004 85.1676 13.8184V13.9473C85.1676 14.3848 85.1031 14.7891 84.9742 15.1602C84.8453 15.5312 84.6559 15.8555 84.4059 16.1328C84.1559 16.4062 83.8492 16.6211 83.4859 16.7773C83.1266 16.9297 82.7145 17.0059 82.2496 17.0059C81.7887 17.0059 81.3766 16.9258 81.0133 16.7656C80.65 16.6055 80.3434 16.3828 80.0934 16.0977C79.8434 15.8086 79.6539 15.4707 79.525 15.084C79.3961 14.6973 79.3316 14.2754 79.3316 13.8184V13.6895C79.3277 13.6074 79.3492 13.5273 79.3961 13.4492C79.4469 13.3711 79.5074 13.2871 79.5777 13.1973C79.648 13.1074 79.7105 13.0039 79.7652 12.8867C79.9605 12.4922 80.191 12.1465 80.4566 11.8496C80.7223 11.5527 81.025 11.3203 81.3648 11.1523C81.7086 10.9844 82.0914 10.9004 82.5133 10.9004ZM82.2379 12.0195C81.8863 12.0195 81.5992 12.1035 81.3766 12.2715C81.1578 12.4355 80.9957 12.6543 80.8902 12.9277C80.7887 13.2012 80.7379 13.498 80.7379 13.8184V13.9473C80.7379 14.209 80.7672 14.457 80.8258 14.6914C80.8844 14.9258 80.9723 15.1328 81.0895 15.3125C81.2105 15.4883 81.3668 15.627 81.5582 15.7285C81.7535 15.8301 81.984 15.8809 82.2496 15.8809C82.5191 15.8809 82.7477 15.8301 82.9352 15.7285C83.1266 15.627 83.2809 15.4883 83.398 15.3125C83.5191 15.1328 83.607 14.9258 83.6617 14.6914C83.7203 14.457 83.7496 14.209 83.7496 13.9473V13.8184C83.7496 13.5762 83.7203 13.3477 83.6617 13.1328C83.607 12.918 83.5191 12.7285 83.398 12.5645C83.277 12.3965 83.1207 12.2637 82.9293 12.166C82.7379 12.0684 82.5074 12.0195 82.2379 12.0195ZM86.4336 16.1797C86.4336 15.9609 86.5078 15.7773 86.6562 15.6289C86.8047 15.4766 87.0059 15.4004 87.2598 15.4004C87.5176 15.4004 87.7188 15.4766 87.8633 15.6289C88.0117 15.7773 88.0859 15.9609 88.0859 16.1797C88.0859 16.3984 88.0117 16.582 87.8633 16.7305C87.7188 16.8789 87.5176 16.9531 87.2598 16.9531C87.0059 16.9531 86.8047 16.8789 86.6562 16.7305C86.5078 16.582 86.4336 16.3984 86.4336 16.1797Z" fill="#0A3818"/>
</svg>
