<svg width="32" height="32" viewBox="0 0 32 32" fill="none" xmlns="http://www.w3.org/2000/svg">
<g clip-path="url(#clip0_312_262)">
<path fill-rule="evenodd" clip-rule="evenodd" d="M31.9992 1.77778C31.9992 1.30628 31.8119 0.854097 31.4785 0.520699C31.1451 0.187301 30.6929 1.92943e-08 30.2214 1.92943e-08H19.2969C18.5903 -8.4922e-05 17.9125 0.280293 17.4125 0.779556L1.25427 16.9156C0.92094 17.2483 0.733258 17.6997 0.732425 18.1706C0.731591 18.6416 0.917675 19.0937 1.24982 19.4276L12.5076 30.7378C12.6725 30.9033 12.8684 31.0347 13.0841 31.1245C13.2997 31.2142 13.531 31.2606 13.7646 31.261C13.9983 31.2613 14.2297 31.2156 14.4456 31.1264C14.6616 31.0372 14.8578 30.9064 15.0232 30.7413L31.2169 14.5698C31.4649 14.3221 31.6617 14.0279 31.7959 13.7041C31.9301 13.3803 31.9992 13.0332 31.9992 12.6827V1.77778Z" fill="#34A853"/>
<path fill-rule="evenodd" clip-rule="evenodd" d="M25.8472 8.61887C26.176 8.62771 26.5033 8.57058 26.8096 8.45086C27.116 8.33114 27.3952 8.15125 27.6309 7.92182C27.8666 7.69239 28.0539 7.41807 28.1818 7.11505C28.3097 6.81202 28.3756 6.48645 28.3756 6.15753C28.3756 5.82862 28.3097 5.50305 28.1818 5.20002C28.0539 4.897 27.8666 4.62268 27.6309 4.39325C27.3952 4.16382 27.116 3.98393 26.8096 3.86421C26.5033 3.74449 26.176 3.68736 25.8472 3.6962C25.2059 3.71344 24.5966 3.98032 24.1491 4.44003C23.7016 4.89974 23.4512 5.51597 23.4512 6.15753C23.4512 6.7991 23.7016 7.41533 24.1491 7.87504C24.5966 8.33475 25.2059 8.60163 25.8472 8.61887Z" fill="#137333"/>
<path d="M13.7129 21.94C13.7129 16.8929 17.8089 12.7969 22.856 12.7969C27.9031 12.7969 31.9991 16.8929 31.9991 21.94C31.9991 26.9862 27.9031 31.0822 22.856 31.0822C17.8098 31.0822 13.7129 26.9862 13.7129 21.94Z" fill="#E6F4EA"/>
<path d="M26.0501 18.5565L20.6554 23.9511L18.9185 22.2143C18.8348 22.1295 18.7352 22.0623 18.6253 22.0164C18.5155 21.9705 18.3976 21.9468 18.2785 21.9468C18.1594 21.9468 18.0416 21.9705 17.9317 22.0164C17.8218 22.0623 17.7222 22.1295 17.6385 22.2143C17.5538 22.2979 17.4865 22.3976 17.4406 22.5074C17.3947 22.6173 17.3711 22.7352 17.3711 22.8543C17.3711 22.9733 17.3947 23.0912 17.4406 23.2011C17.4865 23.3109 17.5538 23.4106 17.6385 23.4943L20.0065 25.8623C20.363 26.2178 20.939 26.2178 21.2954 25.8623L27.3301 19.8365C27.4148 19.7528 27.482 19.6532 27.5279 19.5433C27.5738 19.4334 27.5975 19.3155 27.5975 19.1965C27.5975 19.0774 27.5738 18.9595 27.5279 18.8497C27.482 18.7398 27.4148 18.6401 27.3301 18.5565C27.2464 18.4718 27.1467 18.4045 27.0369 18.3586C26.927 18.3127 26.8091 18.2891 26.6901 18.2891C26.571 18.2891 26.4531 18.3127 26.3433 18.3586C26.2334 18.4045 26.1337 18.4718 26.0501 18.5565Z" fill="#188038"/>
</g>
<defs>
<clipPath id="clip0_312_262">
<rect width="32" height="32" fill="white"/>
</clipPath>
</defs>
</svg>
