<svg width="30" height="32" viewBox="0 0 30 32" fill="none" xmlns="http://www.w3.org/2000/svg">
<path d="M4.43164 0V3.22489H7.63164V0H4.43164ZM20.4316 0V3.22489H23.6316V0H20.4316Z" fill="#FDE293"/>
<path d="M25.6 2.97656H3.2C1.424 2.97656 0.016 4.42634 0.016 6.20145L0 28.7748C0 30.5481 1.424 31.9997 3.2 31.9997H25.6C27.36 31.9997 28.8 30.5481 28.8 28.7748V6.20145C28.8 4.42723 27.36 2.97656 25.6 2.97656Z" fill="#FBBC04"/>
<path d="M25.8456 29.0636H2.95312V11.2031H25.8456V29.0636Z" fill="#FEF7E0"/>
<path fill-rule="evenodd" clip-rule="evenodd" d="M14.4885 14.1571L12.1151 16.5304L14.4885 18.9038C14.5628 18.9781 14.651 19.037 14.748 19.0772C14.8451 19.1174 14.9492 19.1381 15.0542 19.1381C15.1593 19.1381 15.2634 19.1174 15.3604 19.0772C15.4575 19.037 15.5457 18.9781 15.62 18.9038C15.6943 18.8295 15.7532 18.7413 15.7935 18.6442C15.8337 18.5471 15.8544 18.4431 15.8544 18.338C15.8544 18.2329 15.8337 18.1289 15.7935 18.0318C15.7532 17.9347 15.6943 17.8465 15.62 17.7722L15.2885 17.4416C16.0927 17.6437 16.8064 18.1084 17.3165 18.7622C17.8266 19.4159 18.1039 20.2212 18.1045 21.0505C18.104 22.0369 17.7119 22.9828 17.0144 23.6804C16.3168 24.3779 15.3709 24.77 14.3845 24.7704C13.398 24.77 12.4521 24.3779 11.7545 23.6804C11.057 22.9828 10.6649 22.0369 10.6645 21.0505C10.6645 20.8383 10.5802 20.6348 10.4301 20.4848C10.2801 20.3347 10.0766 20.2504 9.86445 20.2504C9.65228 20.2504 9.4488 20.3347 9.29877 20.4848C9.14874 20.6348 9.06445 20.8383 9.06445 21.0505C9.06492 22.4613 9.62557 23.8141 10.6232 24.8117C11.6208 25.8093 12.9736 26.37 14.3845 26.3704C15.7953 26.37 17.1481 25.8093 18.1457 24.8117C19.1433 23.8141 19.704 22.4613 19.7045 21.0505C19.704 19.7682 19.2407 18.5291 18.3996 17.5612C17.5586 16.5932 16.3964 15.9615 15.1267 15.782L15.62 15.2878C15.7701 15.1377 15.8544 14.9342 15.8544 14.722C15.8544 14.5098 15.7701 14.3063 15.62 14.1562C15.47 14.0062 15.2664 13.9219 15.0542 13.9219C14.842 13.9219 14.6385 14.0071 14.4885 14.1571Z" fill="#EA8600"/>
</svg>
