<svg width="389" height="286" viewBox="0 0 389 286" fill="none" xmlns="http://www.w3.org/2000/svg">
<path fill-rule="evenodd" clip-rule="evenodd" d="M188.93 5.03393C161.693 17.9781 138.303 25.3212 107.931 30.4615C96.0622 32.4708 88.6803 32.9394 68.4445 32.9722C43.4708 33.0119 28.5974 31.5844 10.3187 27.395C1.69131 25.4163 0 26.2811 0 32.67C0 38.8698 5.30247 75.1316 7.99726 87.3513C22.5494 153.366 51.0698 199.701 88.5231 218.176C104.35 225.984 119.85 227.74 136.889 223.654C146.635 221.317 159.282 213.761 169.247 204.324C191.623 183.13 203.111 155.507 208.949 108.849C212.786 78.1936 210.889 11.3334 205.92 2.04325C204.145 -1.27683 201.071 -0.735745 188.93 5.03393ZM221.294 73.7675C220.916 77.4385 220.602 84.0606 220.597 88.4832C220.593 92.9059 219.829 102.617 218.9 110.064C217.972 117.512 217.212 124.017 217.212 124.52C217.212 125.023 219.328 124.356 221.914 123.035C230.494 118.655 244.089 120.445 250.965 126.858C255.601 131.181 259.392 140.047 259.52 146.862C259.669 154.816 258.004 155.266 248.903 149.734C241.133 145.012 226.892 139.544 219.459 138.432L214.384 137.671L211.721 148.227C206.25 169.916 195.596 190.771 183.117 204.218C176.677 211.156 176.669 211.171 177.751 215.988C183.11 239.851 204.108 269.558 222.303 279.015C253.073 295.009 292.276 283.019 322.588 248.345C347.868 219.426 366.622 182.248 383.434 127.721C389.48 108.112 390.048 104.87 387.758 103.01C386.924 102.333 374.034 101.619 356.364 101.272C330.974 100.773 323.96 100.246 310.546 97.822C283.664 92.967 256.157 83.9598 232.396 72.2326L221.983 67.0923L221.294 73.7675ZM166.869 73.205C172.49 75.8153 179.276 82.7588 178.411 85.016C177.908 86.3257 174.596 86.7728 162.706 87.1362C150.535 87.5086 146.331 88.0927 140.849 90.1767C137.115 91.595 133.297 92.8391 132.364 92.9421C127.469 93.4786 132.419 80.2956 138.647 76.2126C146.82 70.8538 159.007 69.5555 166.869 73.205ZM84.5397 84.8485C89.9418 87.3682 95.311 93.096 94.7928 95.7879C94.501 97.307 92.2904 97.5866 80.3154 97.6183C67.6243 97.6522 65.2271 97.9941 56.8259 100.972C50.3752 103.259 47.1068 103.926 46.2991 103.117C43.2479 100.064 50.2191 89.5869 57.912 85.6601C66.898 81.0733 75.8592 80.8005 84.5397 84.8485ZM323.185 145.193C326.504 146.18 331.043 148.789 334.06 151.447L339.238 156.008L337.459 161.356C334.799 169.355 334.885 169.309 325.569 167.698C321.04 166.915 311.734 165.922 304.889 165.493C293.115 164.754 289.617 163.822 289.617 161.426C289.617 159.649 300.106 149.06 303.715 147.192C311.398 143.217 315.215 142.825 323.185 145.193ZM138.149 154.826C147.235 156.523 157.329 161.946 163.311 168.345C166.201 171.438 168.566 174.727 168.566 175.657C168.566 179.212 165.087 179.459 156.27 176.528C148.96 174.098 145.469 173.646 133.495 173.578C114.645 173.471 101.598 177.034 88.6792 185.819C83.5272 189.321 81.9174 189.495 80.4285 186.712C79.6117 185.186 80.0111 183.181 81.949 179.071C90.3015 161.355 115.319 150.563 138.149 154.826ZM219.036 205.788C229.83 214.37 245.339 221.956 258.505 225.09C267.183 227.157 271.275 227.455 286.202 227.108C302.062 226.739 303.753 226.885 304.097 228.649C305.025 233.409 288.578 244.913 277.042 247.575C258.021 251.962 233.584 244.734 219.154 230.451C207.448 218.865 201.458 199.148 209.593 198.985C210.069 198.975 214.318 202.036 219.036 205.788Z" fill="#314A21"/>
</svg>
