<svg width="32" height="31" viewBox="0 0 32 31" fill="none" xmlns="http://www.w3.org/2000/svg">
<path d="M14.0109 0C21.3563 0 27.3109 5.95461 27.3109 13.3C27.3109 16.5948 26.1128 19.6099 24.1285 21.9331L31.2143 29.0185L29.7294 30.5034L22.6441 23.4176C20.3208 25.4019 17.3058 26.6 14.0109 26.6C6.66555 26.6 0.710938 20.6454 0.710938 13.3C0.710938 5.95461 6.66555 0 14.0109 0ZM14.0109 2.1C7.82535 2.1 2.81094 7.11441 2.81094 13.3C2.81094 19.4856 7.82535 24.5 14.0109 24.5C20.1965 24.5 25.2109 19.4856 25.2109 13.3C25.2109 7.11441 20.1965 2.1 14.0109 2.1Z" fill="white"/>
</svg>
