<svg width="15" height="14" viewBox="0 0 15 14" fill="none" xmlns="http://www.w3.org/2000/svg">
<path d="M7.64128 0.332031C6.32274 0.332031 5.03381 0.723024 3.93748 1.45557C2.84115 2.18811 1.98667 3.2293 1.48208 4.44747C0.977498 5.66565 0.845476 7.00609 1.10271 8.2993C1.35995 9.59251 1.99488 10.7804 2.92723 11.7127C3.85958 12.6451 5.04747 13.28 6.34068 13.5373C7.63388 13.7945 8.97433 13.6625 10.1925 13.1579C11.4107 12.6533 12.4519 11.7988 13.1844 10.7025C13.917 9.60617 14.3079 8.31724 14.3079 6.9987C14.3079 6.12322 14.1355 5.25631 13.8005 4.44747C13.4654 3.63864 12.9744 2.90371 12.3553 2.28465C11.7363 1.6656 11.0013 1.17453 10.1925 0.839501C9.38367 0.50447 8.51676 0.332031 7.64128 0.332031ZM7.64128 12.6654C6.52052 12.6654 5.42493 12.333 4.49305 11.7104C3.56117 11.0877 2.83486 10.2027 2.40596 9.16724C1.97707 8.13179 1.86485 6.99241 2.0835 5.89319C2.30215 4.79396 2.84184 3.78426 3.63434 2.99176C4.42684 2.19926 5.43654 1.65956 6.53577 1.44091C7.63499 1.22227 8.77437 1.33448 9.80982 1.76338C10.8453 2.19228 11.7303 2.91859 12.3529 3.85047C12.9756 4.78235 13.3079 5.87794 13.3079 6.9987C13.3062 8.50105 12.7086 9.94136 11.6463 11.0037C10.5839 12.066 9.14363 12.6636 7.64128 12.6654ZM7.92128 3.19203H6.92128V7.66536H10.7546V6.66536H7.92128V3.19203Z" fill="#5C5C5C"/>
</svg>
