<svg width="17" height="12" viewBox="0 0 17 12" fill="none" xmlns="http://www.w3.org/2000/svg">
<path d="M16.8594 5.99663C16.8594 7.29828 13.6199 11.5 8.86246 11.5C4.16674 11.5 0.859375 7.29828 0.859375 5.99663C0.859375 4.68823 4.17291 0.5 8.86246 0.5C13.6137 0.5 16.8594 4.68823 16.8594 5.99663ZM2.05645 5.99663C2.05645 6.89362 5.08613 10.3602 8.86246 10.3602C12.6265 10.3602 15.6562 6.89362 15.6562 5.99663C15.6562 5.24801 12.6265 1.63305 8.86246 1.63305C5.08613 1.63305 2.05645 5.24801 2.05645 5.99663ZM8.85938 8C9.96395 8 10.8594 7.10457 10.8594 6C10.8594 4.89543 9.96395 4 8.85938 4C7.75481 4 6.85938 4.89543 6.85938 6C6.85938 7.10457 7.75481 8 8.85938 8Z" fill="#5C5C5C"/>
</svg>
